<?xml version="1.0" encoding="UTF-8" standalone="no"?>
<!-- Created with Inkscape (http://www.inkscape.org/) -->

<svg
   width="210mm"
   height="297mm"
   viewBox="0 0 210 297"
   version="1.1"
   id="svg1"
   sodipodi:docname="npc.svg"
   inkscape:version="1.4 (86a8ad7, 2024-10-11)"
   xmlns:inkscape="http://www.inkscape.org/namespaces/inkscape"
   xmlns:sodipodi="http://sodipodi.sourceforge.net/DTD/sodipodi-0.dtd"
   xmlns="http://www.w3.org/2000/svg"
   xmlns:svg="http://www.w3.org/2000/svg">
  <sodipodi:namedview
     id="namedview1"
     pagecolor="#ffffff"
     bordercolor="#000000"
     borderopacity="0.25"
     inkscape:showpageshadow="2"
     inkscape:pageopacity="0.0"
     inkscape:pagecheckerboard="0"
     inkscape:deskcolor="#d1d1d1"
     inkscape:document-units="mm"
     inkscape:zoom="1.8519889"
     inkscape:cx="736.23553"
     inkscape:cy="588.28648"
     inkscape:window-width="1920"
     inkscape:window-height="974"
     inkscape:window-x="-11"
     inkscape:window-y="-11"
     inkscape:window-maximized="1"
     inkscape:current-layer="layer1" />
  <defs
     id="defs1" />
  <g
     inkscape:groupmode="layer"
     id="layer1"
     inkscape:label="Layer 6">
    <g
       id="g261"
       style="fill:#edd17d;fill-opacity:1"
       transform="translate(7.1925241,47.695646)"
       inkscape:label="leftleg">
      <path
         style="fill:#edd17d;fill-opacity:1;stroke:#000000;stroke-width:1;stroke-dasharray:none"
         d="m 104.06186,112.52062 c 0.0744,0.3899 0.22322,1.16969 0.31549,1.91676 0.0923,0.74707 0.12798,1.46139 0.0565,1.98522 -0.0714,0.52384 -0.25001,0.85719 -0.33335,1.30364 -0.0833,0.44645 -0.0714,1.00601 0.0536,1.50603 0.125,0.50003 0.36311,0.94053 0.48217,1.3215 0.11905,0.38097 0.11905,0.70242 -0.19049,0.92862 -0.30954,0.2262 -0.92862,0.35716 -1.67241,0.41031 -0.74378,0.0531 -1.61227,0.0285 -2.17301,-0.0256 -0.56075,-0.0541 -0.813763,-0.1375 -1.097115,-0.27528 -0.283352,-0.13778 -0.597053,-0.3299 -0.722059,-0.65135 -0.125007,-0.32144 -0.06132,-0.77221 -0.101754,-1.40365 -0.04044,-0.63144 -0.18499,-1.44353 -0.225463,-2.03833 -0.04047,-0.5948 0.02314,-0.97228 0.01923,-1.45866 -0.0039,-0.48638 -0.07534,-1.08165 -0.146775,-1.54 -0.07143,-0.45836 -0.142863,-0.7798 0.255965,-0.98219 0.398828,-0.2024 1.267923,-0.28573 2.220351,-0.41669 0.95243,-0.13096 1.9882,-0.30954 2.53287,-0.47919 0.54467,-0.16965 0.59825,-0.33038 0.62503,-0.41074 0.0268,-0.0804 0.0268,-0.0803 0.1012,0.30957 z"
         id="path253" />
      <path
         style="fill:#edd17d;fill-opacity:1;stroke:#000000;stroke-width:1;stroke-dasharray:none"
         d="m 101.07658,115.25588 c 0.16668,0.28573 0.33336,0.57146 0.50598,0.7679 0.17263,0.19644 0.35121,0.30358 0.63694,0.2381 0.28573,-0.0655 0.67861,-0.30359 1.07148,-0.54169"
         id="path254" />
      <path
         style="fill:#edd17d;fill-opacity:1;stroke:#000000;stroke-width:0.5;stroke-dasharray:none"
         d="m 101.22,120.39918 c -0.19672,0.19508 -0.39344,0.39016 -0.48877,0.63419 -0.0953,0.24403 -0.0893,0.53701 -0.0832,0.82999"
         id="path255" />
      <path
         style="fill:#edd17d;fill-opacity:1;stroke:#000000;stroke-width:0.5;stroke-dasharray:none"
         d="m 102.07664,120.43471 c 0.20878,0.1606 0.41755,0.32121 0.56042,0.54146 0.14286,0.22026 0.21981,0.50014 0.29676,0.78004"
         id="path256" />
      <path
         style="fill:#edd17d;fill-opacity:1;stroke:#000000;stroke-width:0.5;stroke-dasharray:none"
         d="m 103.35771,120.08745 c 0.0948,0.18716 0.18954,0.3743 0.23199,0.64052 0.0425,0.26622 0.0326,0.61151 0.0227,0.95681"
         id="path257" />
      <g
         id="g260"
         transform="translate(56.147465,-28.651414)"
         style="fill:#edd17d;fill-opacity:1">
        <path
           style="fill:#874c16;fill-opacity:1;stroke:#000000;stroke-width:0.499999"
           d="m 43.404199,145.52628 c 0.206249,0.08 0.61875,0.23993 0.959695,0.33674 0.340945,0.0968 0.610324,0.13049 0.947062,0.17258 0.336737,0.0421 0.740819,0.0926 1.149111,0.0968 0.408291,0.004 0.820792,-0.0379 1.216458,-0.0968 0.395665,-0.0589 0.774484,-0.13469 1.153309,-0.14311 0.378824,-0.008 0.757656,0.0505 0.968115,0.16836 0.210458,0.11786 0.252552,0.29465 0.223087,0.43776 -0.02946,0.14311 -0.130485,0.25255 -0.25676,0.35357 -0.126274,0.10102 -0.277803,0.19362 -0.277805,0.29044 -1e-6,0.0968 0.151529,0.19783 0.265179,0.30306 0.113649,0.10523 0.189415,0.21467 0.256761,0.35778 0.06734,0.14311 0.126272,0.31989 0.0421,0.4125 -0.08418,0.0926 -0.311485,0.10105 -0.526153,0.0211 -0.214668,-0.08 -0.416708,-0.24835 -0.559821,-0.22732 -0.143114,0.021 -0.227298,0.2315 -0.383037,0.24413 -0.155739,0.0126 -0.383039,-0.17258 -0.585079,-0.16416 -0.20204,0.008 -0.378825,0.21046 -0.601912,0.18099 -0.223087,-0.0295 -0.492474,-0.29043 -0.715561,-0.31568 -0.223087,-0.0253 -0.399873,0.1852 -0.614541,0.21046 -0.214668,0.0252 -0.467219,-0.1347 -0.698724,-0.13049 -0.231505,0.004 -0.441965,0.17258 -0.644006,0.15154 -0.20204,-0.0211 -0.395663,-0.23151 -0.593494,-0.24414 -0.19783,-0.0126 -0.399875,0.17258 -0.606123,0.14732 -0.206248,-0.0252 -0.416711,-0.26097 -0.610326,-0.38302 -0.193615,-0.12206 -0.370412,-0.13046 -0.349364,-0.21464 0.02105,-0.0842 0.239891,-0.2441 0.387232,-0.40407 0.147341,-0.15997 0.223096,-0.3199 0.189423,-0.46722 -0.03367,-0.14732 -0.176788,-0.28202 -0.252553,-0.4588 -0.07577,-0.17679 -0.08419,-0.39567 -0.02105,-0.52195 0.06314,-0.12627 0.19782,-0.15994 0.265174,-0.17678 0.06735,-0.0168 0.06735,-0.0169 0.273602,0.0631 z"
           id="path258"
           transform="translate(-1.4512641,-0.05268768)" />
        <path
           style="fill:#b18046;fill-opacity:1;stroke:#000000;stroke-width:0.25;stroke-dasharray:none"
           d="m 43.248458,146.60805 c 0.227295,0.12627 0.454593,0.25255 0.681887,0.37882"
           id="path259"
           transform="translate(-1.4512641,-0.05268768)" />
        <path
           style="fill:#b18046;fill-opacity:1;stroke:#000000;stroke-width:0.25;stroke-dasharray:none"
           d="m 49.587489,147.11315 c -0.378834,0.0674 -0.757652,0.13469 -1.136478,0.20204"
           id="path260"
           transform="translate(-1.4512641,-0.05268768)" />
      </g>
    </g>
  </g>
  <g
     inkscape:groupmode="layer"
     id="layer6"
     inkscape:label="Layer 5">
    <g
       id="g253"
       style="fill:#edd17d;fill-opacity:1"
       transform="translate(7.1925241,47.695646)"
       inkscape:label="rightleg">
      <path
         style="fill:#edd17d;fill-opacity:1;stroke:#000000;stroke-width:1;stroke-dasharray:none"
         d="m 96.534686,114.94039 c -0.06548,0.23215 -0.315494,0.75599 -0.440499,1.28577 -0.125006,0.52979 -0.125005,1.06554 -0.125005,1.58343 0,0.51788 0,1.0179 0.02381,1.46435 0.02381,0.44646 0.07143,0.83933 0.208343,1.22625 0.136912,0.38693 0.363114,0.7679 0.208345,1.08339 -0.154769,0.31549 -0.690513,0.56551 -1.422691,0.6548 -0.732179,0.0893 -1.6608,0.0179 -2.446554,-0.10715 -0.785754,-0.125 -1.428643,-0.30359 -1.887001,-0.62503 -0.458359,-0.32145 -0.732184,-0.78576 -0.845283,-1.3215 -0.113099,-0.53574 -0.06548,-1.14291 0.06548,-1.68461 0.130958,-0.54169 0.345258,-1.01791 0.541696,-1.50603 0.196439,-0.48812 0.375017,-0.98814 0.309538,-1.50603 -0.06548,-0.51788 -0.375018,-1.05362 -0.410734,-1.61912 -0.03572,-0.56551 0.202391,-1.16078 0.619079,-1.32745 0.416688,-0.16668 1.011956,0.0952 1.619129,0.36311 0.607174,0.26787 1.226255,0.5417 1.803665,0.75004 0.577409,0.20834 1.113152,0.35121 1.440549,0.53574 0.327396,0.18453 0.446449,0.41073 0.565498,0.49408 0.119049,0.0833 0.238113,0.0238 0.172634,0.25596 z"
         id="path244" />
      <path
         style="fill:#edd17d;fill-opacity:1;stroke:#000000;stroke-width:1;stroke-dasharray:none"
         d="m 92.469003,115.64876 c 0.321444,0.14286 0.642891,0.28573 0.88695,0.47026 0.244059,0.18453 0.410733,0.41073 0.619078,0.39288 0.208346,-0.0179 0.458358,-0.27978 0.708371,-0.5417"
         id="path245" />
      <path
         style="fill:#edd17d;fill-opacity:1;stroke:#000000;stroke-width:0.5;stroke-dasharray:none"
         d="m 93.004745,120.57758 c -0.01191,0.50002 -0.02381,1.00005 -0.03572,1.50008"
         id="path246" />
      <path
         style="fill:#edd17d;fill-opacity:1;stroke:#000000;stroke-width:0.5;stroke-dasharray:none"
         d="m 91.861829,120.64901 c 0.01191,0.50003 0.02381,1.00005 0.03572,1.50008"
         id="path247" />
      <path
         style="fill:#edd17d;fill-opacity:1;stroke:#000000;stroke-width:0.5;stroke-dasharray:none"
         d="m 93.826215,120.34543 c 0.261914,0.32739 0.523832,0.65479 0.648841,0.94945 0.12501,0.29466 0.113106,0.55658 0.101203,0.81849"
         id="path248" />
      <path
         style="fill:#edd17d;fill-opacity:1;stroke:#000000;stroke-width:0.5;stroke-dasharray:none"
         d="m 95.076279,120.22042 c -0.238107,0.29763 -0.476217,0.59527 -0.714323,0.8929"
         id="path249" />
      <g
         id="g252"
         transform="translate(48.065832,-28.575649)"
         style="fill:#edd17d;fill-opacity:1">
        <path
           style="fill:#874c16;fill-opacity:1;stroke:#000000;stroke-width:0.499999"
           d="m 43.336846,145.54312 c 0.273602,0.0631 0.686103,0.22309 1.027048,0.3199 0.340945,0.0968 0.610324,0.13049 0.947062,0.17258 0.336737,0.0421 0.740819,0.0926 1.149111,0.0968 0.408291,0.004 0.820792,-0.0379 1.216458,-0.0968 0.395665,-0.0589 0.774484,-0.13469 1.153309,-0.14311 0.378824,-0.008 0.757656,0.0505 0.968115,0.16836 0.210458,0.11786 0.252552,0.29465 0.223087,0.43776 -0.02946,0.14311 -0.130485,0.25255 -0.25676,0.35357 -0.126274,0.10102 -0.277803,0.19362 -0.277805,0.29044 -1e-6,0.0968 0.151529,0.19783 0.265179,0.30306 0.113649,0.10523 0.189415,0.21467 0.256761,0.35778 0.06734,0.14311 0.126272,0.31989 0.0421,0.4125 -0.08418,0.0926 -0.311485,0.10105 -0.526153,0.0211 -0.214668,-0.08 -0.416708,-0.24835 -0.559821,-0.22732 -0.143114,0.021 -0.227298,0.2315 -0.383037,0.24413 -0.155739,0.0126 -0.383039,-0.17258 -0.585079,-0.16416 -0.20204,0.008 -0.378825,0.21046 -0.601912,0.18099 -0.223087,-0.0295 -0.492474,-0.29043 -0.715561,-0.31568 -0.223087,-0.0253 -0.399873,0.1852 -0.614541,0.21046 -0.214668,0.0252 -0.467219,-0.1347 -0.698724,-0.13049 -0.231505,0.004 -0.441965,0.17258 -0.644006,0.15154 -0.20204,-0.0211 -0.395663,-0.23151 -0.593494,-0.24414 -0.19783,-0.0126 -0.399875,0.17258 -0.606123,0.14732 -0.206248,-0.0252 -0.416711,-0.26097 -0.610336,-0.42092 -0.193624,-0.15995 -0.370405,-0.24413 -0.387241,-0.37461 -0.01684,-0.13049 0.126274,-0.30727 0.273606,-0.42934 0.147333,-0.12208 0.298842,-0.18941 0.303053,-0.29043 0.0042,-0.10102 -0.138905,-0.23572 -0.21467,-0.4125 -0.07577,-0.17679 -0.08419,-0.39567 -0.02105,-0.52195 0.06314,-0.12627 0.19782,-0.15994 0.471423,-0.0968 z"
           id="path250"
           transform="translate(-1.4512641,-0.05268768)" />
        <path
           style="fill:#b18046;fill-opacity:1;stroke:#000000;stroke-width:0.25;stroke-dasharray:none"
           d="m 43.248458,146.60805 c 0.227295,0.12627 0.454593,0.25255 0.681887,0.37882"
           id="path251"
           transform="translate(-1.4512641,-0.05268768)" />
        <path
           style="fill:#b18046;fill-opacity:1;stroke:#000000;stroke-width:0.25;stroke-dasharray:none"
           d="m 49.587489,147.11315 c -0.378834,0.0674 -0.757652,0.13469 -1.136478,0.20204"
           id="path252"
           transform="translate(-1.4512641,-0.05268768)" />
      </g>
    </g>
  </g>
  <g
     inkscape:groupmode="layer"
     id="layer5"
     inkscape:label="Layer 4">
    <g
       id="g227"
       transform="translate(7.1925241,47.695646)"
       style="fill:#edd17d;fill-opacity:1"
       inkscape:label="leftarm">
      <g
         id="g167"
         style="fill:#edd17d;fill-opacity:1"
         transform="translate(-0.14286443,-0.58031749)">
        <path
           style="fill:#edd17d;fill-opacity:1;stroke:#000000;stroke-width:1;stroke-dasharray:none"
           d="m 104.55296,99.130057 c 0.50002,0.136912 0.83337,0.613126 1.17862,1.119103 0.34526,0.50598 0.70242,1.04172 1.02982,1.6608 0.3274,0.61908 0.62504,1.3215 0.91672,1.92272 0.29168,0.60122 0.5774,1.10124 0.92861,1.44054 0.35121,0.33931 0.7679,0.51789 1.21435,0.84529 0.44645,0.3274 0.92267,0.80361 1.06553,1.25007 0.14286,0.44645 -0.0476,0.86313 -0.20239,1.30363 -0.15477,0.4405 -0.27383,0.90481 -0.33335,1.49413 -0.0595,0.58931 -0.0595,1.30363 -0.29169,1.84532 -0.23215,0.5417 -0.69646,0.91077 -1.17268,0.88695 -0.47621,-0.0238 -0.96433,-0.44049 -1.32149,-0.44645 -0.35716,-0.006 -0.58336,0.39884 -0.94052,0.49408 -0.35716,0.0952 -0.84528,-0.11905 -1.30959,-0.48217 -0.46431,-0.36311 -0.90481,-0.87504 -1.15482,-1.52388 -0.25002,-0.64885 -0.30954,-1.4346 -0.2262,-2.03582 0.0833,-0.60123 0.30953,-1.01791 0.5655,-1.39293 0.25597,-0.37502 0.54169,-0.70837 0.52979,-1.17863 -0.0119,-0.47026 -0.32145,-1.07744 -0.67266,-1.66676 -0.35121,-0.58931 -0.74408,-1.16077 -1.13101,-1.76199 -0.38692,-0.60122 -0.76789,-1.23221 -0.85123,-1.82152 -0.0833,-0.58932 0.13096,-1.136963 0.57146,-1.511983 0.4405,-0.375021 1.1072,-0.577412 1.60723,-0.4405 z"
           id="path149" />
        <path
           style="fill:#edd17d;fill-opacity:1;stroke:#000000;stroke-width:0.5;stroke-dasharray:none"
           d="m 107.00546,108.11266 c 0.4405,0.17858 0.881,0.35716 1.30959,0.42859 0.42859,0.0714 0.84528,0.0357 1.2203,0.0893 0.37502,0.0536 0.70837,0.19644 1.04172,0.33931"
           id="path161" />
        <path
           style="fill:#edd17d;fill-opacity:1;stroke:#000000;stroke-width:0.5;stroke-dasharray:none"
           d="m 108.29124,110.54135 c -0.4286,0.11906 -0.85719,0.23811 -1.25602,0.32145 -0.39883,0.0833 -0.76788,0.13096 -0.8929,0.45835 -0.12501,0.3274 -0.006,0.93458 0.1131,1.54175"
           id="path163" />
        <path
           style="fill:#edd17d;fill-opacity:1;stroke:#000000;stroke-width:0.5;stroke-dasharray:none"
           d="m 107.00546,111.00566 c 0.25001,0.46431 0.50003,0.92862 0.75004,1.39293"
           id="path164" />
      </g>
      <path
         style="fill:#c0974b;fill-opacity:1;stroke:#cdaa8a;stroke-width:1;stroke-dasharray:none;stroke-opacity:0"
         d="m 88.961166,92.602339 c 0.06716,0.271866 0.134324,0.543731 0.179403,0.752994 0.04508,0.209263 0.06808,0.355925 0.09118,0.501917 0.02311,0.145991 0.04633,0.291309 0.05774,0.387283 0.01141,0.09597 0.01101,0.142603 0.0089,0.231172 -0.0021,0.08857 -0.0058,0.21907 0.05829,0.230963 0.06412,0.01189 0.196125,-0.09482 0.31732,-0.173855 0.121196,-0.07903 0.231586,-0.130382 0.335961,-0.17784 0.104376,-0.04746 0.202729,-0.09102 0.305324,-0.136322 0.102594,-0.0453 0.209424,-0.09233 0.35768,-0.115646 0.148256,-0.02332 0.337936,-0.02292 0.500468,-0.132668 0.162531,-0.109752 0.297914,-0.329655 0.204744,-0.472977 -0.09317,-0.143322 -0.414894,-0.210063 -0.736618,-0.276804"
         id="path225"
         transform="matrix(1.5849631,0,0,-1.1512751,-35.481556,216.81845)" />
      <g
         id="g226"
         transform="translate(48.065832,-28.575649)"
         style="fill:#edd17d;fill-opacity:1">
        <path
           style="fill:#5b3212;fill-opacity:1;stroke:#000000;stroke-width:0.499999"
           d="m 56.60408,133.40561 c 0.17263,0.006 0.517881,0.0179 0.827423,0.0119 0.309542,-0.006 0.583363,-0.0298 0.898851,-0.0833 0.315488,-0.0536 0.67266,-0.1369 0.980465,-0.25821 0.307805,-0.12131 0.566257,-0.28059 0.787521,-0.36393 0.221264,-0.0833 0.405369,-0.0907 0.603539,0.0187 0.198171,0.1094 0.410421,0.3356 0.248681,0.59157 -0.16174,0.25597 -0.697483,0.54169 -1.120124,0.69646 -0.422642,0.15476 -0.732181,0.17856 -1.107197,0.23213 -0.375017,0.0536 -0.815521,0.13693 -1.196493,0.1905 -0.380972,0.0536 -0.702411,0.0774 -0.910757,-1e-5 -0.208347,-0.0774 -0.303588,-0.25597 -0.315495,-0.44647 -0.01191,-0.19049 0.05953,-0.39289 0.09524,-0.49409 0.03572,-0.1012 0.03572,-0.10114 0.208345,-0.0952 z"
           id="path226" />
      </g>
    </g>
  </g>
  <g
     inkscape:groupmode="layer"
     id="layer4"
     inkscape:label="Layer 3">
    <g
       id="g90"
       transform="translate(7.1925241,47.695646)"
       style="fill:#edd17d;fill-opacity:1"
       inkscape:label="torso">
      <g
         id="g32"
         style="fill:#edd17d;fill-opacity:1">
        <path
           style="fill:#edd17d;fill-opacity:1;stroke:#000000;stroke-width:1;stroke-dasharray:none"
           d="m 91.349899,96.117998 c -0.380972,0.148816 -0.630985,0.625031 -0.892903,1.2203 -0.261918,0.595269 -0.535742,1.309592 -0.750039,1.97034 -0.214296,0.660748 -0.369067,1.267922 -0.535741,2.029862 -0.166675,0.76194 -0.345256,1.67866 -0.500025,2.57156 -0.15477,0.8929 -0.285729,1.762 -0.279777,2.76205 0.006,1.00005 0.148818,2.13106 0.488121,3.11325 0.339304,0.9822 0.875043,1.81557 1.631035,2.51799 0.755993,0.70242 1.73223,1.27387 2.732282,1.6608 1.000052,0.38692 2.023913,0.58931 3.107301,0.61907 1.083389,0.0298 2.226305,-0.1131 3.387076,-0.42263 1.160771,-0.30954 2.339411,-0.78576 3.309701,-1.53579 0.97028,-0.75004 1.73223,-1.77391 2.14296,-2.93468 0.41074,-1.16077 0.47026,-2.45846 0.4286,-3.6609 -0.0417,-1.20244 -0.18454,-2.30964 -0.42264,-3.45256 -0.23811,-1.14291 -0.57146,-2.32154 -0.96434,-3.351358 -0.39288,-1.029817 -0.84528,-1.910812 -1.60723,-2.184637 -0.76194,-0.273824 -1.83342,0.05952 -2.994196,0.196438 -1.160775,0.136912 -2.410838,0.07739 -3.571612,-0.107147 -1.160773,-0.184534 -2.232257,-0.494073 -3.023964,-0.738134 -0.791707,-0.24406 -1.303638,-0.42264 -1.684609,-0.273824 z"
           id="path30" />
        <path
           style="fill:#edd17d;fill-opacity:1;stroke:#000000;stroke-width:1;stroke-dasharray:none"
           d="m 93.826215,101.86234 c 0.500022,-0.0595 1.000052,-0.11905 1.500076,-0.17858"
           id="path31" />
        <path
           style="fill:#edd17d;fill-opacity:1;stroke:#000000;stroke-width:1;stroke-dasharray:none"
           d="m 101.75519,101.50518 c 0.44049,0.0952 0.881,0.19049 1.3215,0.28573"
           id="path32" />
      </g>
      <path
         style="fill:#c0974b;fill-opacity:1;stroke:#cdaa8a;stroke-width:1;stroke-dasharray:none;stroke-opacity:0"
         d="m 89.063136,93.102796 c 0.07948,0.632519 0.15896,1.265037 0.582891,1.31803 0.42393,0.05299 1.19231,-0.473539 1.97983,-0.763123 0.78752,-0.289584 1.594178,-0.34222 2.40084,-0.394856"
         id="path33"
         transform="matrix(1.5849631,0,0,-1.1512751,-50.483086,205.2011)" />
      <path
         style="fill:#c0974b;fill-opacity:1;stroke:#cdaa8a;stroke-width:1;stroke-dasharray:none;stroke-opacity:0"
         d="m 88.728518,92.88343 c 0.217576,0.636175 0.435153,1.272349 0.727263,1.515967 0.29211,0.243619 0.658753,0.09468 0.948666,-0.0077 0.289913,-0.102398 0.503095,-0.158257 0.758069,-0.199707 0.254974,-0.04145 0.55174,-0.0685 0.848506,-0.09554"
         id="path34"
         transform="matrix(-1.5849631,0,0,-1.1512751,244.32773,206.13839)" />
      <path
         style="fill:#c0974b;fill-opacity:1;stroke:#cdaa8a;stroke-width:1;stroke-dasharray:none;stroke-opacity:0"
         d="m 88.662751,94.125617 c 0.07417,-0.114178 0.148337,-0.228354 0.270803,-0.3818 0.122466,-0.153446 0.293229,-0.34616 0.58793,-0.634647 0.294701,-0.288487 0.713338,-0.672746 1.176008,-0.904977 0.462669,-0.232231 0.969371,-0.312435 1.344886,-0.354923 0.375516,-0.04249 0.619841,-0.04726 0.818034,-0.03939 0.198193,0.0079 0.35025,0.02839 0.532581,0.06427 0.182332,0.03588 0.394934,0.08712 0.607538,0.138354"
         id="path35"
         transform="matrix(1.5849631,0,0,-1.1512751,-50.180025,219.79855)" />
      <path
         style="fill:#c0974b;fill-opacity:1;stroke:#cdaa8a;stroke-width:1;stroke-dasharray:none;stroke-opacity:0"
         d="m 87.947743,93.245384 c 0.138987,0.03171 0.277974,0.06342 0.45223,0.119008 0.174256,0.05559 0.383779,0.135055 0.643013,0.253606 0.259235,0.118551 0.568179,0.276185 0.804016,0.445439 0.235836,0.169253 0.398565,0.350124 0.556293,0.531734 0.157728,0.181611 0.310454,0.36396 0.441209,0.555592 0.130755,0.191633 0.239539,0.392549 0.348324,0.593466"
         id="path36"
         transform="matrix(1.5849631,0,0,-1.1512751,-40.583086,221.21284)" />
      <g
         id="g89"
         transform="matrix(0.98276333,0,0,1.0002127,47.613296,-28.872481)"
         style="fill:#5b3212;fill-opacity:1">
        <path
           style="fill:#5b3212;fill-opacity:1;stroke:#000000;stroke-width:0.499999"
           d="m 42.308706,127.08684 c -0.01488,0.0804 -0.04464,0.24107 -0.110124,0.45537 -0.06548,0.21429 -0.166675,0.48216 -0.241084,0.97921 -0.07441,0.49705 -0.12203,1.22328 -0.193462,1.89593 -0.07143,0.67266 -0.166675,1.29174 -0.279776,1.98225 -0.1131,0.69051 -0.244059,1.45245 -0.285728,2.16678 -0.04167,0.71432 0.006,1.38102 0.101195,1.81556 0.09524,0.43455 0.238108,0.63694 0.39883,1.25007 0.160722,0.61312 0.339303,1.63699 0.39883,2.36917 0.05953,0.73218 0,1.17267 -0.01191,1.60722 -0.0119,0.43454 0.02381,0.86314 0.125007,1.36316 0.101196,0.50003 0.267869,1.07148 0.559554,1.23815 0.291685,0.16668 0.708362,-0.0714 0.87504,-0.4643 0.166678,-0.39288 0.08334,-0.94053 0.327395,-0.83339 0.244055,0.10715 0.815524,0.86911 1.220306,0.94054 0.404782,0.0714 0.64289,-0.54765 0.898855,-0.78576 0.255965,-0.23811 0.52979,-0.0952 0.830142,0.18374 0.300351,0.27899 0.627234,0.6941 0.990349,0.80125 0.363115,0.10715 0.762458,-0.0937 0.968084,-0.41431 0.205627,-0.32066 0.217533,-0.76116 0.491356,-0.75521 0.273822,0.006 0.809567,0.45836 1.30959,0.82147 0.500023,0.36311 0.964336,0.63694 1.339354,0.90481 0.375019,0.26787 0.660748,0.52979 0.964334,0.43455 0.303585,-0.0952 0.625034,-0.54765 0.892904,-1.00005 0.267871,-0.45241 0.482165,-0.90481 0.761942,-0.89886 0.279777,0.006 0.625033,0.47026 0.928619,0.47026 0.303587,0 0.565506,-0.46431 0.79766,-0.86314 0.232155,-0.39883 0.434546,-0.73218 0.696464,-0.70837 0.261917,0.0238 0.583365,0.40479 0.875046,0.68456 0.29168,0.27978 0.553599,0.45836 0.797656,0.57741 0.244056,0.11905 0.470264,0.17858 0.565508,-0.0476 0.09524,-0.2262 0.05953,-0.73813 -0.0119,-1.20839 -0.07143,-0.47026 -0.178581,-0.89886 -0.250014,-1.3096 -0.07143,-0.41073 -0.107148,-0.80361 -0.02977,-1.18458 0.07738,-0.38096 0.267876,-0.75004 0.345259,-1.08339 0.07738,-0.33335 0.04167,-0.63098 0.05953,-1.04171 0.01786,-0.41074 0.08929,-0.93458 0.119054,-1.46436 0.02976,-0.52979 0.01786,-1.06553 -0.01235,-1.71123 -0.0302,-0.6457 -0.0787,-1.40135 -0.114419,-1.87161 -0.03572,-0.47026 -0.05865,-0.65514 -0.495685,-0.66124 -0.437036,-0.006 -1.288157,0.16658 -2.110353,0.13599 -0.822196,-0.0306 -1.615458,-0.26445 -2.368527,-0.47579 -0.753069,-0.21135 -1.465937,-0.40018 -2.090243,-0.63746 -0.624306,-0.23728 -1.160047,-0.52301 -1.660073,-0.84445 -0.500025,-0.32145 -0.964335,-0.67861 -1.52984,-1.07744 -0.565505,-0.39883 -1.232205,-0.83933 -1.779851,-1.23221 -0.547647,-0.39287 -0.976243,-0.73813 -1.404837,-1.09529 -0.428593,-0.35716 -0.857183,-0.72622 -1.250059,-1.03576 -0.392877,-0.30954 -0.750043,-0.55956 -1.142919,-0.29169 -0.392876,0.26787 -0.821472,1.05363 -1.035768,1.4465 -0.214296,0.39288 -0.214291,0.3929 -0.229173,0.47326 z"
           id="path37" />
        <path
           style="fill:#5b3212;fill-opacity:1;stroke:#ffffff;stroke-width:0.499999;stroke-opacity:1"
           d="m 50.038267,132.61391 c 0.476215,0.28573 0.952431,0.57146 1.381023,0.78576 0.428592,0.21429 0.809567,0.35716 1.131012,0.44049 0.321444,0.0833 0.583362,0.10713 0.922665,0.0178 0.339304,-0.0893 0.755992,-0.29167 1.071483,-0.45239 0.315492,-0.16071 0.529791,-0.27977 0.744086,-0.39882"
           id="path44" />
        <path
           style="fill:#5b3212;fill-opacity:1;stroke:#ffffff;stroke-width:0.499999;stroke-opacity:1"
           d="m 53.109854,133.86397 c -0.02381,0.36907 -0.04762,0.73814 -0.09524,1.01791 -0.04762,0.27978 -0.119056,0.47027 -0.190487,0.66075"
           id="path80" />
        <path
           style="fill:#5b3212;fill-opacity:1;stroke:#ffffff;stroke-width:0.499999;stroke-opacity:1"
           d="m 54.538498,134.43543 c -0.142864,0.26192 -0.285729,0.52384 -0.428593,0.78576"
           id="path81" />
        <path
           style="fill:#5b3212;fill-opacity:1;stroke:#ffffff;stroke-width:0.499999;stroke-opacity:1"
           d="m 51.038318,134.18542 c -0.08334,0.27382 -0.166676,0.54765 -0.250013,0.82147"
           id="path82" />
        <path
           style="fill:#b18046;fill-opacity:1;stroke:#000000;stroke-width:0.499999"
           d="m 42.406924,136.28076 c 0.333349,0.0238 1.000058,0.0714 1.529839,0.14287 0.529782,0.0714 0.92267,0.16668 1.23816,0.19049 0.31549,0.0238 0.553593,-0.0238 0.815516,-0.0595 0.261922,-0.0357 0.547651,-0.0595 0.744089,-0.0119 0.196438,0.0476 0.303589,0.16667 0.46431,0.14285 0.160721,-0.0238 0.37502,-0.19049 0.571457,-0.13691 0.196437,0.0536 0.375021,0.3274 0.595269,0.47621 0.220249,0.14881 0.482167,0.17261 0.827423,0.18451 0.345256,0.0119 0.773849,0.0119 1.196489,-0.006 0.42264,-0.0179 0.839326,-0.0536 1.31554,-0.10715 0.476215,-0.0536 1.011959,-0.12501 1.535796,-0.16667 0.523837,-0.0417 1.035768,-0.0536 1.488172,-0.0714 0.452404,-0.0179 0.845281,-0.0417 1.267922,-0.14285 0.422641,-0.1012 0.875043,-0.27979 1.482219,-0.51196 0.607176,-0.23216 1.369114,-0.51788 1.744135,-0.45836 0.375022,0.0595 0.363118,0.46432 0.3564,0.82138 -0.0067,0.35707 -0.0083,0.66642 -0.163015,0.78547 -0.154764,0.11905 -0.462775,0.0478 -0.837026,0.0896 -0.374251,0.0418 -0.81475,0.19653 -1.32668,0.35725 -0.51193,0.16072 -1.095296,0.3274 -1.684611,0.41073 -0.589315,0.0833 -1.184584,0.0833 -1.750089,0.13692 -0.565505,0.0536 -1.101246,0.16072 -1.672704,0.22619 -0.571458,0.0655 -1.178632,0.0893 -1.791758,0.10715 -0.613126,0.0179 -1.232205,0.0298 -1.717348,-0.0476 -0.485143,-0.0774 -0.836347,-0.24408 -0.848254,0.006 -0.01191,0.25001 0.315486,0.91671 0.514902,1.4465 0.199415,0.5298 0.270848,0.92268 0.330374,1.28579 0.05953,0.36311 0.107147,0.69646 0.107148,0.98814 0,0.29169 -0.04762,0.5417 -0.285729,0.6786 -0.238107,0.13691 -0.666701,0.16071 -0.97076,0.0192 -0.30406,-0.14148 -0.483585,-0.44824 -0.662073,-1.15173 -0.178489,-0.7035 -0.355943,-1.80373 -0.480478,-1.6682 -0.124536,0.13553 -0.196149,1.50681 -0.464109,2.1746 -0.267961,0.66778 -0.73227,0.63207 -1.041811,0.41182 -0.30954,-0.22025 -0.464312,-0.62504 -0.500027,-1.04173 -0.03572,-0.41668 0.04762,-0.84528 0.148818,-1.2322 0.101196,-0.38693 0.220247,-0.73218 0.333348,-1.11911 0.113102,-0.38692 0.220249,-0.81551 0.08334,-1.06552 -0.136909,-0.25002 -0.517885,-0.32145 -0.922668,-0.41074 -0.404782,-0.0893 -0.833376,-0.19644 -1.250062,-0.27382 -0.416686,-0.0774 -0.821463,-0.12501 -1.065529,-0.35121 -0.244065,-0.22621 -0.327402,-0.63099 -0.232161,-0.83933 0.09524,-0.20834 0.369059,-0.22024 0.505967,-0.22619 0.136909,-0.006 0.136909,-0.006 0.470258,0.0178 z"
           id="path83" />
        <path
           style="fill:#5b3212;fill-opacity:1;stroke:#000000;stroke-width:0.499999"
           d="m 45.680902,136.5784 c -0.226201,0.33335 -0.452404,0.6667 -0.559552,0.98814 -0.107147,0.32145 -0.09524,0.63099 -0.08333,0.94053"
           id="path84" />
        <path
           style="fill:#b18046;fill-opacity:1;stroke:#000000;stroke-width:0.499999"
           d="m 47.466707,136.5784 c -0.160775,0.2535 -0.32155,0.507 -0.490048,0.70264 -0.168497,0.19565 -0.344715,0.33344 -0.539659,0.47358 -0.194943,0.14014 -0.40861,0.28263 -0.644657,0.45154 -0.236047,0.16891 -0.494467,0.36423 -0.499969,0.44971 -0.0055,0.0855 0.241912,0.0611 0.512146,0.0589 0.270235,-0.002 0.563273,0.0176 0.85632,0.0375"
           id="path85" />
        <path
           style="fill:#b18046;fill-opacity:1;stroke:#000000;stroke-width:0.499999"
           d="m 48.35961,137.07842 c -0.177082,0.41426 -0.354163,0.82852 -0.697133,1.1158 -0.34297,0.28727 -0.851823,0.44757 -1.360676,0.60786"
           id="path87" />
        <path
           style="fill:#956c37;fill-opacity:1;stroke:#000000;stroke-width:0.499999"
           d="m 46.835146,138.63181 c -0.253795,0.0894 -0.507578,0.17876 -0.56304,0.41393 -0.05546,0.23518 0.0874,0.61615 0.182646,1.00307 0.09524,0.38693 0.142865,0.77981 0.321446,1.29174 0.178581,0.51193 0.488118,1.14291 0.797659,1.7739"
           id="path88" />
        <path
           style="fill:#956c37;fill-opacity:1;stroke:#000000;stroke-width:0.499999"
           d="m 46.395224,138.82851 c -0.09524,0.58336 -0.190486,1.16673 -0.238108,1.6727 -0.04762,0.50598 -0.04762,0.93458 -0.20239,1.38103 -0.154769,0.44645 -0.464309,0.91076 -0.773848,1.37507"
           id="path89" />
      </g>
    </g>
  </g>
  <g
     inkscape:groupmode="layer"
     id="layer3"
     inkscape:label="Layer 2">
    <g
       id="g56"
       style="display:inline;fill:#edd17d;fill-opacity:1"
       transform="translate(57.337939,45.195516)"
       inkscape:label="head">
      <path
         style="fill:#edd17d;fill-opacity:1;stroke:#000000;stroke-width:1;stroke-dasharray:none"
         d="m 104.95774,94.689356 c -0.10715,0.648843 0.30953,0.80361 0.88099,0.654794 0.57146,-0.148817 1.29769,-0.601221 1.6608,-1.184584 0.36312,-0.583363 0.36311,-1.297686 0.10715,-1.720327 -0.25597,-0.42264 -0.7679,-0.553599 -1.33936,-0.04762 -0.57145,0.505978 -1.20244,1.648895 -1.30958,2.297738 z"
         id="path11"
         transform="translate(-50.288281,2.7144242)" />
      <path
         style="fill:#edd17d;fill-opacity:1;stroke:#000000;stroke-width:1;stroke-dasharray:none;stroke-opacity:1"
         d="m 88.992635,91.183224 c 0.04762,-0.285729 -0.13096,-0.857186 -0.238109,-1.506029 -0.107148,-0.648843 -0.142863,-1.375071 -0.07143,-2.184636 0.07143,-0.809565 0.250013,-1.702468 0.684558,-2.57156 0.434546,-0.869092 1.125058,-1.714373 1.767948,-2.422743 0.64289,-0.708369 1.238158,-1.279826 1.857238,-1.726278 0.619079,-0.446451 1.261969,-0.767896 2.154872,-1.017909 0.892902,-0.250013 2.035818,-0.428593 3.178733,-0.428593 1.142915,0 2.285835,0.178581 3.238265,0.500025 0.95242,0.321444 1.71437,0.785756 2.41083,1.625085 0.69647,0.839328 1.32745,2.053673 1.74414,3.345406 0.41669,1.291733 0.61908,2.660851 0.63099,4.059731 0.0119,1.398881 -0.16668,2.827526 -0.64289,4.125211 -0.47622,1.297685 -1.25007,2.464412 -2.4287,3.262071 -1.17863,0.797659 -2.76205,1.226254 -4.196645,1.297686 -1.434596,0.07143 -2.720376,-0.214297 -3.899008,-0.517884 -1.178631,-0.303587 -2.250114,-0.625032 -3.178733,-0.982193 -0.928619,-0.357161 -1.714373,-0.750038 -2.428696,-1.148868 -0.714322,-0.39883 -1.357212,-0.803613 -1.73223,-1.250064 -0.375019,-0.446451 -0.482168,-0.934571 -0.345256,-1.303638 0.136912,-0.369066 0.517883,-0.619079 0.845281,-0.744085 0.327398,-0.125007 0.601221,-0.125007 0.648842,-0.410735 z"
         id="path10"
         transform="translate(-50.288281,2.7144242)" />
      <path
         style="fill:#c0974b;fill-opacity:1;stroke:#cdaa8a;stroke-width:1;stroke-dasharray:none;stroke-opacity:0"
         d="m 89.087037,93.058923 c 0.272019,0.491759 0.544037,0.983517 1.411132,1.503766 0.867096,0.520249 2.329266,1.068989 3.791442,1.61773"
         id="path38"
         transform="matrix(1.5849631,0,0,1.1512751,-103.32213,-11.196275)" />
      <path
         style="fill:#edd17d;fill-opacity:1;stroke:#000000;stroke-width:1;stroke-dasharray:none"
         d="m 96.754936,92.004694 c 1.631034,0.02381 3.262074,0.04762 4.893104,0.07143"
         id="path12"
         transform="translate(-50.288281,2.7144242)" />
      <ellipse
         style="fill:#000000;fill-opacity:1;stroke:#000000;stroke-width:1.039;stroke-dasharray:none"
         id="path13"
         ry="0.42347077"
         rx="0.42347082"
         cy="90.897491"
         cx="43.109341" />
      <ellipse
         style="fill:#000000;fill-opacity:1;stroke:#000000;stroke-width:0.919632;stroke-dasharray:none"
         id="ellipse13"
         cx="53.181286"
         cy="90.790344"
         rx="0.39734513"
         ry="0.43306115" />
    </g>
  </g>
  <g
     inkscape:groupmode="layer"
     id="layer2"
     inkscape:label="Layer 1">
    <g
       id="g27"
       transform="translate(7.1925209,47.695644)"
       style="display:inline;fill:#edd17d;fill-opacity:1"
       inkscape:label="rightarm">
      <g
         id="g16"
         transform="translate(0.70714309,0.48385702)"
         style="fill:#edd17d;fill-opacity:1">
        <path
           style="fill:#edd17d;fill-opacity:1;stroke:#000000;stroke-width:1;stroke-dasharray:none"
           d="m 83.784036,110.07109 c -0.101196,-0.43454 -0.172629,-0.98219 -0.166676,-1.50008 0.006,-0.51788 0.08929,-1.006 0.339305,-1.4584 0.250014,-0.45241 0.666698,-0.86909 1.006002,-1.4346 0.339303,-0.5655 0.601223,-1.27983 0.875046,-2.02986 0.273822,-0.75004 0.559553,-1.5358 0.791707,-2.22631 0.232155,-0.69051 0.410735,-1.28578 0.726227,-1.815568 0.315492,-0.529789 0.767896,-0.994098 1.28578,-1.279827 0.517884,-0.285729 1.101247,-0.392877 1.571509,-0.232154 0.470262,0.160722 0.827423,0.589315 1.017908,1.273872 0.190486,0.684557 0.214296,1.625087 0.101195,2.517987 -0.1131,0.8929 -0.363111,1.73818 -0.565503,2.53585 -0.202392,0.79766 -0.357161,1.54769 -0.22025,2.16082 0.136911,0.61312 0.565507,1.08934 0.714323,1.63103 0.148816,0.5417 0.01786,1.14887 -0.369067,1.51794 -0.386926,0.36907 -1.029816,0.50002 -1.500078,0.81552 -0.470262,0.31549 -0.767893,0.81551 -1.107197,1.2203 -0.339304,0.40478 -0.720276,0.71432 -1.166727,0.80361 -0.446452,0.0893 -0.958383,-0.0417 -1.250064,-0.35121 -0.291681,-0.30954 -0.363114,-0.79766 -0.613124,-1.006 -0.25001,-0.20835 -0.67861,-0.13691 -0.958386,-0.26192 -0.279777,-0.12501 -0.410734,-0.44645 -0.51193,-0.881 z"
           id="path14" />
        <path
           style="fill:#edd17d;fill-opacity:1;stroke:#000000;stroke-width:0.5;stroke-dasharray:none"
           d="m 84.147148,109.50558 c 0.416689,-0.35716 0.833377,-0.71432 1.250064,-1.07148"
           id="path15"
           transform="matrix(1.228712,0,0,1.2112625,-19.602712,-22.8248)" />
        <path
           style="fill:#edd17d;fill-opacity:1;stroke:#000000;stroke-width:0.5;stroke-dasharray:none"
           d="m 85.575792,111.00566 c 0.154771,-0.39288 0.309539,-0.78575 0.46431,-1.17863"
           id="path16"
           transform="matrix(0.93347069,0,0,1.2783081,5.7087415,-30.569037)" />
      </g>
      <path
         style="fill:#c0974b;fill-opacity:1;stroke:#cdaa8a;stroke-width:1;stroke-dasharray:none;stroke-opacity:0"
         d="m 89.448622,93.15952 c 0.158129,0.138317 0.316258,0.276634 0.503795,0.554498 0.187536,0.277864 0.404479,0.695274 0.595928,0.948495 0.191448,0.253222 0.357406,0.342257 0.606568,0.49548 0.249161,0.153223 0.581528,0.370634 0.632529,0.714736 0.051,0.344102 -0.179366,0.814894 -0.321538,1.383173 -0.142172,0.568278 -0.196151,1.234042 -0.137073,1.988725 0.05908,0.754684 0.23121,1.598283 0.403343,2.441883"
         id="path23"
         transform="matrix(1.5849631,0,0,-1.1512751,-53.892525,219.84906)" />
      <g
         id="g26"
         transform="translate(47.102475,-28.078596)"
         style="fill:#8b501a;fill-opacity:1">
        <path
           style="fill:#8b501a;fill-opacity:1;stroke:#000000;stroke-width:0.499999"
           d="m 37.891071,135.74617 c 0.260969,0.0758 0.78291,0.2273 1.34694,0.37883 0.56403,0.15153 1.170152,0.30307 2.196829,0.42475 1.026676,0.12168 2.473908,0.2135 3.166275,0.12232 0.692368,-0.0912 0.629869,-0.3654 0.505621,-0.64138 -0.124247,-0.27598 -0.310245,-0.55374 -0.421987,-0.80078 -0.111742,-0.24703 -0.149222,-0.46333 -0.03914,-0.85029 0.110082,-0.38696 0.367721,-0.94455 -0.196067,-1.06934 -0.563787,-0.12479 -1.949015,0.18323 -2.919433,0.24464 -0.970417,0.0614 -1.526031,-0.1238 -1.997459,-0.24165 -0.471428,-0.11786 -0.858674,-0.16837 -1.08597,-0.0842 -0.227296,0.0842 -0.294644,0.30306 -0.286224,0.53035 0.0084,0.2273 0.0926,0.46301 0.01684,0.78291 -0.07577,0.3199 -0.311479,0.72398 -0.429337,0.92602 -0.117857,0.20204 -0.117853,0.20204 0.143116,0.2778 z"
           id="path24" />
        <path
           style="fill:#8b501a;fill-opacity:1;stroke:#000000;stroke-width:0.499999"
           d="m 38.084693,134.30663 c 0.521935,0.0673 1.043881,0.13469 1.380616,0.26097 0.336734,0.12628 0.488262,0.31148 0.639794,0.49669"
           id="path25" />
        <path
           style="fill:#8b501a;fill-opacity:1;stroke:#000000;stroke-width:0.499999"
           d="m 44.701531,134.83699 c -0.404083,0.12628 -0.808163,0.25255 -1.149104,0.28623 -0.340942,0.0337 -0.618753,-0.0253 -0.896559,-0.0842"
           id="path26" />
      </g>
    </g>
  </g>
</svg>
